<?xml version="1.0" encoding="utf-8"?>
<!-- Generator: Adobe Illustrator 24.3.0, SVG Export Plug-In . SVG Version: 6.00 Build 0)  -->
<svg version="1.1" id="Layer_1" xmlns="http://www.w3.org/2000/svg" xmlns:xlink="http://www.w3.org/1999/xlink" x="0px" y="0px"
	 viewBox="0 0 1240 1240" enable-background="new 0 0 1240 1240" xml:space="preserve">
<g>
	<path fill="#E17564" d="M109.2,1051.9v121.8c0,19.2-11.1,19.2-14.8,19.2c-3.8,0-14.8,0-14.8-19.2v-112c0-18.4-11.9-24.8-21.9-24.8
		c-8.1,0-21.1,3.2-25.6,22.4v-28.6c0.8-3,2.4-6.2,5.1-9.4c10.8-11.9,29.4-10,38.3-8.9c8.1,0.8,15.1,1.6,21.6,6.7
		C104.9,1025.4,109.2,1036.8,109.2,1051.9z"/>
	<path fill="#E17564" d="M1136.4,1051.5v121.8c0,19.2,11.1,19.2,14.8,19.2c3.8,0,14.8,0,14.8-19.2v-112c0-18.4,11.9-24.8,21.9-24.8
		c8.1,0,21.1,3.2,25.6,22.4v-28.6c-0.8-3-2.4-6.2-5.1-9.4c-10.8-11.9-29.4-10-38.3-8.9c-8.1,0.8-15.1,1.6-21.6,6.7
		C1140.7,1025,1136.4,1036.4,1136.4,1051.5z"/>
	<path fill="#E17564" d="M228.9,1011.8c-39.1,0-56.4,20.2-56.4,65.3v49.9c0,45.1,17.3,65.3,56.4,65.3c39.1,0,56.7-20.2,56.7-65.3
		v-49.9C285.6,1032.1,268,1011.8,228.9,1011.8z M253.7,1123.6c0,31-4,47.8-24.8,47.8s-24.6-16.7-24.6-47.8v-43.7
		c0-24.3,3-47,24.6-47c21.6,0,24.8,22.7,24.8,47V1123.6z"/>
	<path fill="#E17564" d="M430.3,1192.4c-9.9,0-14.9-6.1-14.9-18v-5.7c0,0-6.9,23.7-45,23.7c-21.9,0-33.9-14.1-33.9-39.7v-121.9
		c0-19,11.2-19,14.9-19s14.9,0,14.9,19v112.1c0,21.8,13.6,25,21.6,25c18.2,0,27.4-13,27.4-38.6v-98.5c0-19,11.2-19,14.9-19
		c3.7,0,14.9,0,14.9,19v142.6C445.2,1192.4,434,1192.4,430.3,1192.4z"/>
	<path fill="#E17564" d="M545,1192.4c-37.7,0-51.2-23.1-51.2-44.7c0-9.9,4.7-14.9,13.9-14.9c10,0,14.6,2.9,16,20.1
		c1.1,12.8,9.7,20.2,23.6,20.2c13.8,0,22-8.5,22-22.7c0-11.1-4.1-17.8-16.8-27.6l-31.6-23.4c-22.9-17-25.5-26.9-25.5-43.8
		c0-27.8,18.5-43.7,50.8-43.7c39.4,0,49.8,25.7,49.8,39.3c0,9.2-2.6,14.6-16,14.6c-7.7,0-10.7-2.9-11.2-10.6c-0.8-15-9.6-24-23.7-24
		c-11.7,0-19.9,8.2-19.9,19.9c0,6.2,2,15.1,11.4,22.2l25.4,19.3c25.8,19.3,37,30,37,51.7C599.2,1174.4,579,1192.4,545,1192.4z"/>
	<path fill="#E17564" d="M741.7,1192.4c-3.7,0-14.9,0-14.9-19v-112.1c0-18.5-11.7-25-21.6-25c-10.2,0-27.4,5-27.4,38.6v98.5
		c0,19-11.3,19-15,19c-3.7,0-14.9,0-14.9-19v-142.6c0-19,11.2-19,14.9-19c9.9,0,15,6.1,15,18v5.7c1.4-4.9,4.3-11.6,10.4-16.7
		c11.1-9.5,25.7-7.9,34.6-7c8,0.9,15.1,1.5,21.6,6.8c8.1,6.5,12.3,17.7,12.3,32.9v121.9C756.6,1192.4,745.4,1192.4,741.7,1192.4z"/>
	<path fill="#E17564" d="M910.9,1192.4c-8.9,0-13.3-3.2-17.5-12.5l-30.2-71.2l-20.4,26.1v38.5c0,19-11.2,19-14.9,19
		c-3.7,0-14.9,0-14.9-19V970.2c0-19,11.2-19,14.9-19c3.7,0,14.9,0,14.9,19v115.1h8.8l2.4-2.6l35.9-56.2c6.1-9.7,12-14.6,17.5-14.6
		c4.8,0,14.6,2.9,14.6,11.9c0,3.1-0.7,5.7-4.4,10.9l-33,47.3l38.9,89.6c1.3,2.8,1.9,6,1.9,9.6
		C925.5,1188.5,918.2,1192.4,910.9,1192.4z"/>
	<path fill="#E17564" d="M1065.6,1192.4c-9.9,0-14.9-6.1-14.9-18v-5.7c-1.7,3.8-5.3,10.3-12.2,15.6c-12.6,9.7-27.2,8.5-32.8,8.1
		c-6.6-0.5-14.6-1.1-21.6-6.8c-8-6.5-12.3-17.7-12.3-32.9v-121.9c0-19,11.2-19,14.9-19c3.7,0,15,0,15,19v112.1
		c0,21.8,13.6,25,21.6,25c18.2,0,27.4-13,27.4-38.6v-98.5c0-19,11.2-19,14.9-19c3.7,0,14.9,0,14.9,19v142.6
		C1080.5,1192.4,1069.3,1192.4,1065.6,1192.4z"/>
	<g>
		<g>
			<g>
				<path fill="#E17564" d="M638.4,45.8c290.2,86.7,341.5,242.7,341.5,242.7s108.4,63.9,100.3,129c-0.5,4-1.9,13-8.4,21.4
					c-9.9,12.7-27.7,19-50.1,19c-17.3,0-37.3-3.7-58.5-11.1c-4.9,15.8-11.7,45.5-3,79.6c10.9,42.8,40.1,68.7,60.3,86
					c14.4,12.4,43.7,29.3,102.2,63.1c31.8,18.3,55.4,31.3,60.1,55.8c2.3,11.7-0.5,22.3-3.4,29.6c-86.3-65.8-166.2-105.8-224.2-130.2
					c-66-27.8-125.8-52.2-206.9-52.2c-1.2,0-2.4,0-3.7,0c-50,0.4-91.2,10-119.2,18.6c-31.8,37.5-80.6,83.1-143.4,85.3
					c-1.2,0-2.4,0.1-3.5,0.1c-30.2,0-42-14.1-84.6-20.8c-13.5-2.1-26.4-3-38.8-3c-48.8,0-89.1,13.9-117.9,23.9
					c-91.9,31.8-150.5,89.8-178.9,122.5c-0.3-6.3-0.6-12.6-0.9-18.9c-0.6-11.6,1.4-23,5.7-33.5c6.4-15.8,16.8-26.1,25.2-33.3
					c77.4-65.5,179.8-97.4,179.8-97.4c31.9-9.9,76.7-21.6,132.1-28.9c1.7-24.6,10-94.2,64.8-148.4c46.8-46.3,103.4-57.3,122.1-60.6
					c14.3-2.6,27.5-3.7,39.8-3.7c55.1,0,92.5,21.3,139.3,21.3c16.2,0,33.5-2.6,53.1-9.5c35.3-12.4,64.5-34.3,67.6-36.6
					c29.1-22.1,47.7-46.1,58.7-62.8C724.8,206.1,638.4,45.8,638.4,45.8 M638.4,21.3c-7.2,0-14.3,3.2-19,9
					c-6.3,7.7-7.3,18.4-2.6,27.1c0.9,1.8,23.8,43.7,74.7,96.4c42.6,44.1,113.4,104.1,215.5,149.5c-10.5,12.2-22.2,23.2-35,32.9
					c-2.9,2.2-29.3,21.9-60.9,33c-15.4,5.4-30.1,8.1-45,8.1c-19.5,0-38.2-4.5-58-9.3c-23.3-5.6-49.6-12-81.2-12
					c-14.7,0-29.1,1.3-44.2,4c-54.3,9.8-99.7,32.5-135,67.3c-47.6,47.1-64.2,104.9-69.9,144.2c-39.9,6.2-79.2,15.3-117.1,27.1
					c0,0-0.1,0-0.1,0c-5.1,1.6-108.9,34.9-188.2,102.1c-9.7,8.2-23.6,21.6-32.1,42.8c-5.6,14-8.1,28.7-7.4,43.9l0.9,18.5l0,0.4
					c0.5,10,7,18.7,16.5,22c2.6,0.9,5.3,1.4,8,1.4c7,0,13.8-3,18.5-8.4c32.3-37.2,87.8-87.5,168.4-115.4
					c27.5-9.5,65.2-22.6,109.9-22.6c11.7,0,23.5,0.9,35.1,2.7c17.8,2.8,29.3,6.9,40.4,11c13.6,5,27.7,10.1,47.9,10.1
					c1.4,0,2.9,0,4.4-0.1c54.8-1.9,106-30.8,156.4-88.4c34.7-10,70.2-15.2,105.6-15.5c1.1,0,2.2,0,3.4,0c78,0,136,24.4,197.5,50.3
					c77,32.4,150.7,75.1,218.8,127.1c4.3,3.3,9.5,5,14.8,5c2.2,0,4.4-0.3,6.6-0.9c7.4-2.1,13.4-7.5,16.2-14.7
					c5.8-14.7,7.3-29.3,4.6-43.3c-6.8-34.7-35.7-51.4-69.2-70.7l-2.7-1.6c-55.3-31.9-85.8-49.5-98.5-60.5
					c-17.2-14.9-43.3-37.3-52.5-73.5c-3.5-13.6-4.3-28.1-2.5-42.8c14.1,3.2,27.7,4.9,40.2,4.9c31,0,55-9.8,69.5-28.5
					c7.3-9.4,11.8-20.6,13.4-33.4c4.4-35.3-14.1-72.3-54.8-109.9c-19.6-18.1-39.6-31.9-50.1-38.6c-15.9-36.1-91.3-171.1-354.3-249.7
					C643.1,21.6,640.7,21.3,638.4,21.3L638.4,21.3z"/>
			</g>
			<g>
				<path fill="#E17564" d="M614.5,636.5c-2.4,0-4.7-0.8-6.6-2.5c-4.2-3.7-4.7-10.1-1-14.3c49.5-56.9,18.5-105.4,18.1-105.8
					c-3.1-4.7-1.8-10.9,2.9-14c4.7-3.1,10.9-1.8,14,2.9c0.4,0.6,39.7,61.9-19.7,130.3C620.1,635.4,617.3,636.5,614.5,636.5z"/>
			</g>
			<g>
				<path fill="#E17564" d="M427.2,478.5c-0.5,0-1.1,0-1.6-0.1c-35.5-4.7-90.5-34.8-99.5-73.1c-10.8-46.2,20.2-95.1,69.2-109
					c4.3-1.2,8.8,0,12,3.1c3.1,3.1,4.4,7.7,3.2,11.9c-2.4,8.9-6.6,32,6.2,54.4c13.1,22.9,39,36.5,67.5,35.6
					c6.7-0.2,12.4,5.1,12.7,11.8c0.2,6.8-5.1,12.4-11.8,12.7c-37.7,1.2-72-17.1-89.6-47.9c-10.2-17.8-12.5-35.7-12-49.9
					c-25.5,15.3-39.9,44.3-33.4,71.8c5.6,24,48.8,50.4,78.9,54.4c6.7,0.9,11.4,7.1,10.5,13.8C438.5,474,433.2,478.5,427.2,478.5z"/>
			</g>
		</g>
	</g>
	<g>
		<path fill="#E17564" d="M31.8,963H32v200.8c0,6.8-5.5,12.3-12.3,12.3c-6.8,0-12.3-5.5-12.3-12.3V910.6c0-5.1,3.2-9.7,7.9-11.5
			c5.5-2.1,11-4.1,16.5-6.1V963z"/>
		<path fill="#E17564" d="M1068,846.9c39.7,10.7,79.3,22.8,118.3,36.4v25.9c-36-12.7-72.5-24.2-109.2-34.5V920
			c0,3.8-1.7,7.4-4.8,9.7c-3,2.3-7,3.1-10.6,2.1c-58.6-15.7-119.7-28.5-181.4-38c-6-0.9-10.4-6.1-10.4-12.1v-50.8
			c-47-6.9-94.6-11.9-141.9-14.9v48.2c0,3.3-1.4,6.6-3.8,8.9c-2.5,2.3-5.7,3.5-9.1,3.3c-61.2-3.3-123.3-3.3-184.4,0
			c-3.4,0.2-6.6-1-9.1-3.3c-2.5-2.3-3.8-5.5-3.8-8.9V816c-47.3,2.9-95,7.9-141.9,14.9v50.8c0,6.1-4.4,11.2-10.4,12.1
			c-61.8,9.5-122.8,22.3-181.4,38c-3.7,1-7.6,0.2-10.6-2.1c-3-2.3-4.8-5.9-4.8-9.7v-45.2c-36.7,10.2-73.3,21.8-109.3,34.5v-26
			c39-13.6,78.7-25.8,118.4-36.4c3.7-1,7.6-0.2,10.7,2.1c3,2.3,4.8,5.9,4.8,9.7v45.3c51.4-13.2,104.5-24.3,158.2-32.9v-50.9
			c0-6,4.4-11.2,10.4-12.1c55.4-8.5,111.7-14.4,167.6-17.4c3.4-0.2,6.6,1,9.1,3.3c2.5,2.3,3.8,5.5,3.8,8.9v48.3
			c53.6-2.5,107.7-2.5,161.3,0V803c0-3.4,1.4-6.6,3.8-8.9c2.4-2.3,5.7-3.6,9.1-3.3c55.9,3,112.3,8.9,167.7,17.4
			c6,0.9,10.4,6.1,10.4,12.1v50.9c53.7,8.6,106.8,19.6,158.2,32.9v-45.3c0-3.8,1.8-7.4,4.8-9.7
			C1060.4,846.7,1064.3,845.9,1068,846.9z"/>
		<path fill="#E17564" d="M1238.1,910.6v252.8c0,6.8-5.5,12.3-12.3,12.3s-12.3-5.5-12.3-12.3V919.1h0V893c5.5,2,11.1,4.1,16.6,6.2
			C1234.9,901,1238.1,905.5,1238.1,910.6z"/>
	</g>
</g>
</svg>
